<?xml version="1.0" standalone="no"?>
<!DOCTYPE svg PUBLIC "-//W3C//DTD SVG 20010904//EN"
 "http://www.w3.org/TR/2001/REC-SVG-20010904/DTD/svg10.dtd">
<svg version="1.0" xmlns="http://www.w3.org/2000/svg"
 width="1536.000000pt" height="1024.000000pt" viewBox="0 0 1536.000000 1024.000000"
 preserveAspectRatio="xMidYMid meet">

<g transform="translate(0.000000,1024.000000) scale(0.100000,-0.100000)"
fill="#000000" stroke="none">
<path d="M8307 7333 c3 -20 2 -24 -5 -15 -7 11 -12 6 -20 -18 -7 -17 -16 -29
-21 -25 -6 3 -8 -4 -6 -17 4 -21 3 -22 -9 -5 -13 17 -15 17 -28 -2 -8 -12 -17
-18 -20 -16 -3 3 -5 -5 -4 -17 0 -13 -4 -22 -11 -21 -7 2 -10 -6 -8 -17 2 -11
-2 -20 -8 -20 -7 0 -18 -19 -25 -42 -23 -73 -54 -138 -63 -132 -5 3 -9 -1 -9
-10 0 -8 6 -17 13 -19 7 -4 6 -6 -4 -6 -14 -1 -30 -35 -31 -61 0 -3 -4 -11
-10 -17 -6 -7 -7 -13 -3 -13 4 0 1 -7 -6 -16 -7 -9 -14 -22 -15 -30 -1 -7 -9
-21 -18 -29 -8 -9 -18 -32 -22 -53 -4 -20 -22 -76 -40 -124 -18 -47 -38 -106
-43 -130 -6 -24 -19 -68 -30 -100 -11 -31 -16 -60 -13 -64 4 -4 2 -4 -4 -1
-11 6 -24 -31 -40 -112 -3 -18 -14 -52 -24 -74 -10 -23 -16 -45 -14 -49 3 -4
1 -8 -4 -8 -5 0 -12 -18 -16 -41 -4 -22 -20 -78 -36 -125 -16 -46 -26 -84 -22
-84 4 0 2 -4 -4 -8 -10 -7 -35 -82 -36 -112 0 -8 -5 -21 -11 -27 -5 -7 -7 -13
-4 -13 3 0 -1 -16 -9 -35 -8 -19 -14 -37 -14 -40 1 -30 -1 -37 -7 -31 -4 4
-21 -48 -38 -116 -17 -68 -34 -129 -38 -135 -5 -7 -5 -18 -1 -25 4 -7 3 -8 -4
-4 -7 4 -15 -8 -21 -31 -45 -175 -55 -209 -62 -218 -4 -6 -10 -28 -13 -50 -2
-22 -16 -85 -30 -140 -14 -55 -26 -113 -27 -130 -1 -29 -1 -29 -8 -5 l-7 25
-7 -30 c-14 -69 -19 -91 -24 -105 -3 -8 -7 -22 -9 -30 -15 -80 -29 -128 -36
-124 -4 3 -8 -1 -9 -8 0 -7 -2 -22 -5 -33 -2 -11 -7 -38 -10 -60 -3 -22 -10
-45 -14 -50 -5 -6 -11 -22 -13 -35 -9 -48 -20 -85 -27 -95 -4 -5 -10 -26 -13
-45 -7 -47 -11 -63 -20 -76 -4 -7 -10 -29 -13 -50 -10 -65 -12 -79 -14 -81 -4
-5 -7 -21 -10 -45 -2 -20 -3 -19 -10 7 -7 26 -8 27 -10 8 -1 -13 -3 -26 -4
-30 -1 -5 -5 -34 -10 -65 -4 -32 -11 -58 -15 -58 -4 0 -7 -8 -8 -17 -1 -10 -4
-31 -9 -48 -4 -16 -8 -45 -8 -63 -1 -21 -5 -31 -13 -28 -7 3 -15 -5 -19 -17
-7 -21 -10 -38 -17 -107 -2 -17 -7 -33 -10 -37 -4 -3 -7 -17 -7 -29 0 -13 -4
-26 -10 -29 -5 -3 -10 -20 -10 -36 0 -20 -4 -28 -12 -23 -8 5 -9 0 -6 -14 4
-12 3 -22 -2 -22 -9 0 -37 -107 -45 -171 -9 -73 -11 -80 -20 -78 -16 2 -21
-22 -20 -110 0 -50 -4 -91 -8 -91 -5 0 -6 -3 -4 -7 3 -5 8 -26 11 -47 8 -47
16 -59 17 -25 0 19 3 16 15 -16 18 -50 72 -101 122 -114 49 -14 182 -14 182 0
0 5 4 8 9 5 5 -3 14 1 21 9 7 8 21 15 31 15 11 0 19 4 19 10 0 5 3 9 8 9 21
-4 31 5 47 41 10 22 23 40 29 40 10 0 30 59 95 280 49 165 75 247 86 275 7 17
22 64 34 105 13 41 31 104 41 140 11 36 31 103 45 150 14 47 35 117 45 155 17
63 80 270 130 430 42 133 93 304 111 375 11 41 29 102 39 135 11 33 52 168 91
300 38 132 76 260 84 285 7 25 21 74 30 110 8 36 34 124 56 195 22 72 54 173
70 225 16 52 40 139 53 192 13 53 26 101 29 105 3 5 8 20 11 34 4 22 44 173
81 308 8 30 17 66 19 80 2 14 5 27 6 29 2 1 4 7 5 12 1 6 3 11 5 13 1 1 3 9 5
17 2 8 8 37 14 63 6 27 9 52 6 57 -3 4 0 10 6 12 9 3 19 37 35 128 9 55 11
110 2 110 -5 0 -7 4 -3 9 9 16 13 71 4 65 -10 -6 -11 0 -12 59 -1 30 -5 39
-23 43 -16 4 -21 11 -17 22 5 11 3 13 -7 7 -8 -5 -11 -4 -6 3 3 6 15 9 25 7
10 -2 18 3 18 10 0 8 -4 12 -9 9 -5 -3 -15 0 -23 6 -8 7 -16 10 -16 6 -1 -3
-2 -10 -3 -15 0 -5 -4 -12 -7 -15 -3 -3 -4 12 -3 35 2 33 0 38 -12 28 -11 -9
-14 -9 -14 1 0 7 -7 10 -15 6 -13 -5 -20 5 -16 27 0 4 -3 7 -9 7 -5 0 -10 -7
-10 -15 0 -9 -6 -12 -16 -8 -12 5 -13 7 -2 14 8 5 1 7 -17 4 -17 -2 -33 -4
-37 -4 -5 -1 -7 -6 -5 -13 1 -7 -4 -12 -11 -13 -7 0 -17 -7 -22 -15 -7 -11
-10 -7 -10 18 0 17 -4 32 -9 32 -4 0 -6 -12 -4 -27z m113 -8 c0 -1 -8 -5 -18
-7 -11 -3 -19 0 -19 7 0 7 8 10 19 7 10 -2 18 -6 18 -7z"/>
<path d="M5966 6935 c-3 -8 -12 -12 -21 -9 -8 4 -22 1 -30 -6 -8 -6 -19 -9
-25 -5 -5 3 -10 -1 -10 -10 0 -9 -4 -14 -9 -10 -5 3 -13 0 -17 -7 -6 -9 -10
-5 -15 12 l-7 25 -7 -22 c-4 -13 -14 -23 -21 -23 -8 0 -14 -4 -14 -10 0 -5 -7
-7 -15 -4 -8 4 -17 -1 -21 -10 -3 -9 -10 -16 -15 -16 -6 0 -15 -4 -22 -10 -57
-47 -76 -60 -86 -60 -6 0 -11 -7 -11 -16 0 -10 -6 -14 -14 -11 -8 3 -27 -6
-41 -21 -15 -15 -33 -27 -40 -27 -12 0 -76 -51 -134 -105 -14 -14 -32 -26 -39
-28 -7 -1 -23 -12 -35 -23 -12 -11 -34 -28 -49 -37 -16 -9 -28 -22 -28 -29 0
-7 -4 -13 -9 -13 -4 0 -30 -21 -57 -47 -27 -27 -51 -48 -54 -48 -12 0 -60 -44
-60 -55 0 -6 -4 -9 -9 -5 -6 3 -23 -7 -39 -22 -37 -36 -64 -57 -96 -78 -14
-10 -26 -25 -26 -34 0 -13 -2 -13 -9 -2 -7 10 -22 0 -67 -42 -33 -30 -75 -68
-94 -83 -19 -16 -36 -32 -38 -36 -2 -5 -9 -8 -15 -8 -7 0 -50 -36 -96 -80 -47
-44 -89 -80 -93 -80 -5 0 -24 -15 -42 -32 -18 -18 -39 -34 -47 -36 -8 -1 -44
-34 -81 -73 -38 -38 -68 -67 -68 -63 0 4 -16 -14 -37 -40 -22 -29 -39 -43 -43
-36 -6 11 -14 -3 -25 -46 -1 -6 -14 -28 -27 -50 -14 -21 -23 -45 -20 -53 2 -8
0 -11 -5 -8 -19 12 -27 -170 -11 -223 9 -31 62 -140 67 -140 3 0 62 -54 130
-120 69 -65 128 -117 131 -115 4 3 25 -12 48 -33 52 -49 159 -132 169 -132 4
0 19 -12 32 -25 22 -24 182 -157 240 -200 14 -10 46 -36 70 -57 24 -21 50 -38
57 -38 7 0 17 -6 21 -13 4 -7 33 -33 63 -57 30 -25 57 -47 60 -50 26 -26 140
-120 145 -120 4 0 29 -18 55 -40 26 -22 52 -40 56 -40 5 0 24 -18 43 -40 19
-22 38 -40 42 -40 4 0 23 -14 41 -31 18 -17 49 -41 68 -54 19 -12 46 -34 59
-49 14 -14 29 -26 34 -26 5 0 23 -15 41 -34 49 -54 178 -106 262 -106 60 0
185 47 212 80 7 8 30 45 51 83 31 56 38 78 40 130 2 78 -39 202 -70 210 -10 3
-22 13 -25 24 -11 28 -45 62 -58 57 -14 -6 -42 23 -32 33 7 7 -32 37 -52 40
-17 2 -53 34 -48 42 5 8 -20 31 -26 25 -3 -2 -22 12 -42 31 -21 19 -42 35 -47
35 -5 0 -19 11 -31 25 -12 14 -28 23 -35 20 -8 -2 -17 3 -20 13 -9 21 -41 50
-70 62 -13 5 -23 16 -23 23 0 17 -38 53 -46 44 -4 -4 -20 3 -36 15 -18 12 -26
23 -19 27 7 5 3 13 -9 24 -11 9 -20 12 -20 6 0 -6 -13 0 -29 13 -17 13 -28 28
-27 33 2 6 -2 16 -10 22 -8 8 -14 9 -16 2 -2 -5 -18 5 -36 22 -25 25 -35 30
-41 20 -6 -10 -10 -10 -16 -1 -4 6 -4 14 -1 17 3 4 -11 18 -32 32 -43 29 -67
51 -55 51 4 0 -9 11 -29 25 -20 14 -41 25 -46 25 -5 0 -15 7 -22 15 -10 12
-10 15 0 15 7 0 2 9 -11 19 -13 11 -25 16 -27 11 -2 -5 -16 3 -32 17 -16 14
-27 30 -24 34 3 5 1 9 -4 9 -12 0 -57 39 -57 49 0 10 -106 101 -117 101 -4 0
-15 11 -24 25 -31 47 8 99 191 258 88 77 193 169 234 206 41 36 86 75 100 85
14 11 55 47 91 80 36 34 79 70 95 81 26 18 94 78 174 155 14 14 41 37 59 52
48 38 267 243 331 308 53 54 89 116 92 155 1 16 2 16 8 -5 7 -23 9 -22 21 18
12 37 12 45 -1 53 -9 5 -9 9 -2 9 8 0 9 9 3 29 -4 16 -6 32 -2 35 3 3 0 6 -6
6 -7 0 -12 -15 -12 -32 l-1 -33 -15 35 c-20 44 -36 84 -35 88 2 7 -35 38 -41
35 -8 -4 -12 12 -9 30 1 5 -8 6 -19 2 -15 -5 -20 -2 -20 11 0 16 -1 16 -19 0
-18 -17 -20 -17 -30 2 -11 21 -51 37 -51 20 0 -5 -5 -6 -10 -3 -6 4 -8 10 -6
14 3 4 -10 8 -27 9 -17 2 -36 7 -41 12 -14 14 -23 12 -30 -5z"/>
<path d="M9594 6782 c8 -13 -7 -23 -48 -32 -17 -4 -30 -12 -28 -19 1 -7 -1
-10 -6 -7 -4 2 -14 1 -22 -4 -11 -7 -11 -11 -1 -23 10 -13 9 -15 -8 -10 -15 4
-21 1 -21 -11 0 -9 -4 -16 -10 -16 -5 0 -10 10 -10 22 0 18 -15 18 -15 0 0 -4
-4 -13 -8 -19 -5 -7 -4 -13 1 -13 5 0 8 -10 6 -22 -1 -13 -3 -27 -3 -31 -1 -5
-6 -5 -12 -1 -6 3 -3 -8 5 -25 9 -17 23 -31 31 -31 8 0 15 -6 15 -12 0 -7 11
-26 25 -42 14 -16 25 -34 25 -39 0 -6 3 -8 6 -4 3 3 33 -23 66 -59 33 -35 65
-64 71 -64 5 0 20 -10 32 -22 58 -60 144 -138 151 -138 3 0 28 -18 53 -40 25
-22 54 -47 64 -56 10 -8 102 -83 205 -166 103 -83 203 -166 222 -184 20 -19
39 -34 44 -34 6 0 52 -40 116 -100 9 -9 52 -45 96 -80 45 -36 92 -74 106 -85
40 -33 98 -121 98 -148 0 -18 -11 -35 -35 -54 -20 -15 -45 -43 -56 -60 -11
-18 -26 -33 -32 -33 -7 0 -25 -16 -40 -35 -15 -19 -34 -35 -41 -35 -8 0 -28
-16 -45 -35 -17 -19 -34 -35 -38 -35 -5 0 -24 -18 -43 -40 -19 -22 -39 -40
-45 -40 -6 0 -21 -13 -35 -29 -13 -17 -27 -28 -31 -25 -4 2 -16 -4 -26 -14
-10 -10 -31 -26 -48 -37 -29 -18 -51 -36 -100 -82 -13 -13 -42 -33 -64 -45
-22 -13 -83 -59 -137 -103 -53 -44 -101 -80 -106 -80 -6 0 -26 -15 -47 -33
-42 -39 -142 -118 -229 -182 -34 -25 -61 -51 -62 -57 0 -7 -4 -13 -9 -13 -5 0
-17 -8 -27 -18 -10 -9 -21 -17 -25 -17 -11 0 -44 -36 -59 -66 -9 -17 -15 -20
-18 -10 -5 16 -72 -95 -72 -121 0 -10 -7 -18 -15 -18 -8 0 -15 -7 -15 -15 0
-8 4 -15 8 -15 5 0 7 -12 4 -28 -2 -15 5 -49 15 -75 19 -49 81 -136 97 -137 4
0 21 -11 37 -24 31 -26 127 -66 159 -66 11 0 20 -5 20 -10 0 -18 120 0 180 27
30 14 75 41 100 62 25 20 67 52 94 71 27 18 57 41 66 50 10 10 44 37 76 60 54
40 150 119 199 163 11 11 40 33 65 49 25 17 61 46 80 64 19 19 80 69 135 111
55 42 120 94 145 115 25 22 50 42 55 46 14 10 213 175 306 253 43 37 95 84
116 105 21 22 72 71 113 110 41 39 90 87 108 107 35 40 84 141 74 153 -4 4 -1
4 6 0 6 -4 12 -4 13 1 0 4 3 22 6 38 4 27 4 76 0 147 -2 23 -4 25 -22 16 -20
-11 -20 -11 0 13 11 13 16 21 11 17 -5 -4 -17 -3 -28 3 -16 9 -17 13 -6 27 10
12 10 14 1 8 -8 -4 -13 -1 -13 9 0 9 -4 14 -8 11 -5 -3 -9 0 -10 7 -2 30 -10
52 -18 50 -5 -1 -20 20 -33 46 -13 26 -30 48 -37 48 -8 0 -14 -4 -14 -9 0 -5
-5 -6 -11 -3 -6 4 -8 14 -4 22 5 14 3 14 -12 2 -9 -8 -14 -9 -10 -2 4 6 1 17
-6 25 -8 7 -12 18 -10 23 2 6 -15 10 -37 9 -34 0 -40 3 -49 28 -6 15 -15 28
-20 28 -6 0 -11 5 -11 10 0 6 -16 26 -36 45 -35 34 -51 45 -39 26 3 -5 0 -13
-6 -17 -7 -4 -9 -3 -6 3 4 6 -1 19 -9 29 -9 10 -13 12 -9 4 4 -8 -3 -3 -15 13
-12 15 -26 27 -30 27 -13 0 -59 48 -52 54 3 3 0 6 -7 6 -7 0 -9 5 -6 10 3 6 1
10 -4 10 -6 0 -11 -7 -11 -16 0 -11 -12 -4 -36 22 -20 22 -40 38 -45 37 -5 -2
-9 5 -9 14 0 9 -3 13 -6 10 -4 -4 -18 6 -31 21 -18 21 -25 24 -32 13 -11 -18
-34 -4 -26 16 5 13 3 14 -10 3 -9 -7 -15 -9 -14 -4 3 13 -16 56 -24 55 -22 -3
-26 1 -20 16 4 10 2 14 -5 9 -6 -3 -22 6 -36 21 -18 19 -26 23 -26 13 -1 -12
-3 -11 -11 3 -6 9 -15 15 -20 11 -5 -3 -8 -2 -7 3 2 4 -1 9 -6 10 -5 0 -13 9
-18 18 -8 13 -12 14 -26 3 -12 -10 -14 -10 -8 0 6 11 -5 17 -26 13 -4 0 -11
11 -14 25 -5 19 -9 22 -15 12 -7 -10 -9 -10 -9 3 0 9 -18 35 -39 58 l-40 43
-4 -29 -4 -28 -8 33 c-4 17 -13 32 -20 32 -8 0 -15 4 -17 10 -1 5 -17 10 -34
12 -26 2 -30 6 -27 23 4 15 2 17 -5 6 -8 -11 -11 -9 -17 8 -7 22 -25 29 -25
10 0 -8 -5 -8 -15 1 -8 7 -15 18 -15 25 0 7 -11 16 -25 19 -16 4 -23 11 -19
18 4 7 3 8 -4 4 -7 -4 -24 5 -39 21 -14 15 -23 22 -19 16 4 -7 2 -13 -3 -13
-6 0 -11 9 -11 20 0 11 -5 20 -11 20 -5 0 -7 -4 -4 -10 3 -5 -1 -10 -10 -10
-9 0 -13 4 -10 10 3 6 -1 7 -9 4 -11 -4 -16 0 -16 11 0 9 -4 13 -10 10 -5 -3
-17 3 -27 15 -10 11 -23 20 -30 20 -6 0 -15 5 -19 12 -5 7 -3 8 7 3 12 -7 12
-6 1 7 -14 18 -46 13 -35 -5 4 -6 1 -7 -6 -3 -7 5 -10 10 -7 14 11 11 -29 30
-45 21 -12 -6 -19 -2 -28 17 -6 14 -16 22 -22 19 -6 -4 -21 3 -35 16 -13 12
-24 19 -24 15 0 -3 -13 0 -29 9 -23 11 -30 12 -34 2 -3 -9 -8 -9 -20 2 -9 7
-14 18 -10 24 3 6 1 7 -6 3 -6 -4 -9 -12 -6 -17 4 -5 2 -9 -4 -9 -5 0 -12 4
-15 9 -4 5 -14 8 -24 6 -9 -1 -25 4 -34 13 -14 12 -20 12 -33 2 -13 -11 -14
-10 -10 3 4 8 1 18 -6 23 -7 4 -10 3 -5 -4z m-134 -182 c0 -5 -2 -10 -4 -10
-3 0 -8 5 -11 10 -3 6 -1 10 4 10 6 0 11 -4 11 -10z"/>
<path d="M9315 6530 c10 -11 20 -20 23 -20 3 0 -3 9 -13 20 -10 11 -20 20 -23
20 -3 0 3 -9 13 -20z"/>
<path d="M9365 6481 c21 -24 95 -86 95 -79 0 2 -26 26 -57 53 -32 27 -49 39
-38 26z"/>
<path d="M6130 6294 c-264 -226 -631 -534 -829 -698 -280 -231 -331 -276 -331
-295 0 -10 10 -26 23 -37 l22 -19 -18 22 c-11 13 -16 29 -13 41 4 10 63 66
133 123 69 57 201 167 293 244 92 77 220 185 286 240 224 187 644 547 644 551
0 7 -1 7 -210 -172z"/>
<path d="M9508 6362 c46 -43 451 -375 787 -645 116 -93 262 -211 325 -262 141
-113 164 -138 157 -165 -3 -11 -1 -18 4 -14 21 12 6 43 -43 90 -29 28 -210
178 -403 332 -348 279 -390 313 -705 569 -91 74 -146 116 -122 95z"/>
<path d="M8231 5404 c0 -11 3 -14 6 -6 3 7 2 16 -1 19 -3 4 -6 -2 -5 -13z"/>
<path d="M8216 5354 c-4 -14 -5 -28 -3 -31 3 -2 8 8 11 23 4 14 5 28 3 31 -3
2 -8 -8 -11 -23z"/>
<path d="M8176 5224 c-4 -14 -5 -28 -3 -31 3 -2 8 8 11 23 4 14 5 28 3 31 -3
2 -8 -8 -11 -23z"/>
<path d="M4010 5111 c0 -6 4 -13 10 -16 6 -3 7 1 4 9 -7 18 -14 21 -14 7z"/>
<path d="M8141 5104 c0 -11 3 -14 6 -6 3 7 2 16 -1 19 -3 4 -6 -2 -5 -13z"/>
<path d="M4042 5056 c28 -53 203 -201 758 -644 69 -55 197 -158 285 -229 781
-630 746 -606 905 -607 83 -1 102 2 153 26 70 33 129 78 158 121 16 24 10 20
-26 -16 -59 -59 -112 -90 -189 -112 -101 -29 -240 -3 -327 63 -53 39 -363 286
-589 468 -179 145 -517 418 -831 669 -68 55 -165 140 -216 190 -50 49 -87 82
-81 71z"/>
<path d="M8116 5024 c-4 -14 -5 -28 -3 -31 3 -2 8 8 11 23 4 14 5 28 3 31 -3
2 -8 -8 -11 -23z"/>
<path d="M11566 4942 c-52 -56 -61 -69 -27 -37 47 45 118 126 109 125 -1 -1
-39 -40 -82 -88z"/>
<path d="M8081 4904 c0 -11 3 -14 6 -6 3 7 2 16 -1 19 -3 4 -6 -2 -5 -13z"/>
<path d="M8061 4839 c-7 -22 -11 -43 -8 -45 2 -2 9 14 16 37 7 22 11 43 8 45
-2 2 -9 -14 -16 -37z"/>
<path d="M11440 4829 c-42 -37 -295 -241 -630 -509 -783 -626 -882 -703 -950
-734 -37 -17 -64 -21 -160 -21 -109 0 -119 2 -183 32 -79 38 -166 116 -192
173 -10 22 -20 38 -22 36 -10 -10 43 -92 86 -136 121 -121 321 -161 471 -94
77 35 100 53 810 621 664 531 825 662 810 662 -3 0 -21 -13 -40 -30z"/>
<path d="M8016 4694 c-4 -14 -5 -28 -3 -31 3 -2 8 8 11 23 4 14 5 28 3 31 -3
2 -8 -8 -11 -23z"/>
<path d="M7986 4594 c-4 -14 -5 -28 -3 -31 3 -2 8 8 11 23 4 14 5 28 3 31 -3
2 -8 -8 -11 -23z"/>
<path d="M7951 4474 c0 -11 3 -14 6 -6 3 7 2 16 -1 19 -3 4 -6 -2 -5 -13z"/>
<path d="M7931 4404 c0 -11 3 -14 6 -6 3 7 2 16 -1 19 -3 4 -6 -2 -5 -13z"/>
<path d="M7906 4324 c-4 -14 -5 -28 -3 -31 3 -2 8 8 11 23 4 14 5 28 3 31 -3
2 -8 -8 -11 -23z"/>
<path d="M7861 4179 c-7 -22 -11 -43 -8 -45 2 -2 9 14 16 37 7 22 11 43 8 45
-2 2 -9 -14 -16 -37z"/>
<path d="M7836 4094 c-4 -14 -5 -28 -3 -31 3 -2 8 8 11 23 4 14 5 28 3 31 -3
2 -8 -8 -11 -23z"/>
<path d="M7801 3979 c-7 -22 -11 -43 -8 -45 2 -2 9 14 16 37 7 22 11 43 8 45
-2 2 -9 -14 -16 -37z"/>
<path d="M6383 3970 c0 -25 2 -35 4 -22 2 12 2 32 0 45 -2 12 -4 2 -4 -23z"/>
<path d="M7776 3894 c-4 -14 -5 -28 -3 -31 3 -2 8 8 11 23 4 14 5 28 3 31 -3
2 -8 -8 -11 -23z"/>
<path d="M9271 3904 c0 -11 3 -14 6 -6 3 7 2 16 -1 19 -3 4 -6 -2 -5 -13z"/>
<path d="M6371 3884 c0 -11 3 -14 6 -6 3 7 2 16 -1 19 -3 4 -6 -2 -5 -13z"/>
<path d="M6343 3809 c-12 -27 -20 -49 -18 -49 8 0 46 81 43 90 -2 4 -13 -14
-25 -41z"/>
<path d="M7746 3794 c-4 -14 -5 -28 -3 -31 3 -2 8 8 11 23 4 14 5 28 3 31 -3
2 -8 -8 -11 -23z"/>
<path d="M7716 3694 c-4 -14 -5 -28 -3 -31 3 -2 8 8 11 23 4 14 5 28 3 31 -3
2 -8 -8 -11 -23z"/>
<path d="M7686 3594 c-4 -14 -5 -28 -3 -31 3 -2 8 8 11 23 4 14 5 28 3 31 -3
2 -8 -8 -11 -23z"/>
<path d="M7656 3494 c-4 -14 -5 -28 -3 -31 3 -2 8 8 11 23 4 14 5 28 3 31 -3
2 -8 -8 -11 -23z"/>
<path d="M7621 3379 c-7 -22 -11 -43 -8 -45 2 -2 9 14 16 37 7 22 11 43 8 45
-2 2 -9 -14 -16 -37z"/>
<path d="M7561 3184 c-12 -42 -20 -78 -18 -80 2 -2 14 30 26 72 12 42 20 78
18 80 -2 2 -14 -30 -26 -72z"/>
<path d="M7521 3049 c-7 -22 -11 -43 -8 -45 2 -2 9 14 16 37 7 22 11 43 8 45
-2 2 -9 -14 -16 -37z"/>
<path d="M6721 2834 c0 -11 3 -14 6 -6 3 7 2 16 -1 19 -3 4 -6 -2 -5 -13z"/>
<path d="M7368 2666 c-56 -63 -145 -113 -225 -126 l-58 -9 56 4 c71 4 151 43
212 101 38 36 76 86 65 83 -2 0 -24 -24 -50 -53z"/>
<path d="M6788 2673 c52 -75 175 -144 252 -142 l45 1 -54 8 c-73 11 -153 54
-214 114 -35 35 -44 41 -29 19z"/>
</g>
</svg>
